<svg width="32" height="32" viewBox="0 0 32 32" fill="none" xmlns="http://www.w3.org/2000/svg">
<path d="M4 8H6.66667H28" stroke="#414158" stroke-width="2" stroke-linecap="round" stroke-linejoin="round"/>
<path d="M10.6666 8.00033V5.33366C10.6666 4.62641 10.9476 3.94814 11.4477 3.44804C11.9478 2.94794 12.626 2.66699 13.3333 2.66699H18.6666C19.3739 2.66699 20.0521 2.94794 20.5522 3.44804C21.0523 3.94814 21.3333 4.62641 21.3333 5.33366V8.00033M25.3333 8.00033V26.667C25.3333 27.3742 25.0523 28.0525 24.5522 28.5526C24.0521 29.0527 23.3739 29.3337 22.6666 29.3337H9.33329C8.62605 29.3337 7.94777 29.0527 7.44767 28.5526C6.94758 28.0525 6.66663 27.3742 6.66663 26.667V8.00033H25.3333Z" stroke="#414158" stroke-width="2" stroke-linecap="round" stroke-linejoin="round"/>
<path d="M13.3334 14.667V22.667" stroke="#414158" stroke-width="2" stroke-linecap="round" stroke-linejoin="round"/>
<path d="M18.6666 14.667V22.667" stroke="#414158" stroke-width="2" stroke-linecap="round" stroke-linejoin="round"/>
</svg>
